<svg width="16" height="11" viewBox="0 0 16 11" fill="none" xmlns="http://www.w3.org/2000/svg">
<path d="M7.82895 10.1316C7.64171 10.1316 7.46009 10.0929 7.28408 10.0155C7.10808 9.9382 6.96203 9.83508 6.84594 9.70618L0.386181 2.59089C0.128727 2.30731 0 1.94639 0 1.50813C0 1.06987 0.128727 0.70895 0.386181 0.42537C0.643635 0.14179 0.971304 0 1.36919 0C1.76707 0 2.09474 0.14179 2.3522 0.42537L7.82895 6.4579L13.3057 0.42537C13.5632 0.14179 13.8908 0 14.2887 0C14.6866 0 15.0143 0.14179 15.2717 0.42537C15.5292 0.70895 15.6579 1.06987 15.6579 1.50813C15.6579 1.94639 15.5292 2.30731 15.2717 2.59089L8.81195 9.70618C8.67152 9.86086 8.51939 9.97069 8.35556 10.0357C8.19172 10.1006 8.01619 10.1326 7.82895 10.1316Z" fill="#393939"/>
</svg>
