<svg width="16" height="17" viewBox="0 0 16 17" fill="none" xmlns="http://www.w3.org/2000/svg">
<path d="M8 0.5C6.41775 0.5 4.87103 0.969192 3.55544 1.84824C2.23985 2.72729 1.21447 3.97672 0.608967 5.43853C0.00346628 6.90034 -0.15496 8.50887 0.153721 10.0607C0.462403 11.6126 1.22433 13.038 2.34315 14.1569C3.46197 15.2757 4.88743 16.0376 6.43928 16.3463C7.99113 16.655 9.59966 16.4965 11.0615 15.891C12.5233 15.2855 13.7727 14.2602 14.6518 12.9446C15.5308 11.629 16 10.0822 16 8.5C15.9959 6.37952 15.1518 4.34705 13.6524 2.84764C12.153 1.34823 10.1205 0.504066 8 0.5ZM8 15.2692C6.66117 15.2692 5.35241 14.8722 4.23922 14.1284C3.12603 13.3846 2.2584 12.3274 1.74605 11.0905C1.2337 9.85356 1.09965 8.49249 1.36084 7.17939C1.62203 5.86629 2.26674 4.66012 3.21343 3.71343C4.16013 2.76674 5.36629 2.12203 6.67939 1.86084C7.99249 1.59965 9.35356 1.7337 10.5905 2.24605C11.8274 2.75839 12.8846 3.62602 13.6284 4.73922C14.3722 5.85241 14.7692 7.16117 14.7692 8.5C14.7672 10.2947 14.0534 12.0153 12.7843 13.2843C11.5153 14.5534 9.79469 15.2672 8 15.2692ZM12.9231 8.5C12.9231 8.66321 12.8582 8.81973 12.7428 8.93514C12.6274 9.05055 12.4709 9.11538 12.3077 9.11538H8C7.83679 9.11538 7.68027 9.05055 7.56486 8.93514C7.44945 8.81973 7.38462 8.66321 7.38462 8.5V4.19231C7.38462 4.0291 7.44945 3.87257 7.56486 3.75716C7.68027 3.64176 7.83679 3.57692 8 3.57692C8.16321 3.57692 8.31974 3.64176 8.43514 3.75716C8.55055 3.87257 8.61539 4.0291 8.61539 4.19231V7.88461H12.3077C12.4709 7.88461 12.6274 7.94945 12.7428 8.06486C12.8582 8.18026 12.9231 8.33679 12.9231 8.5Z" fill="#393939"/>
</svg>
