<svg width="55" height="41" viewBox="0 0 55 41" fill="none" xmlns="http://www.w3.org/2000/svg">
<path d="M12.4869 40.832H16.9509V31.616H21.5109L22.6629 28.304H16.9509V9.10396H15.3669L0.198853 31.328V31.616H12.4869V40.832ZM2.93485 28.304L12.4389 14.384H12.4869V28.304H2.93485Z" fill="#1A1A1A"/>
<path d="M27.6796 32.576C29.4076 32.576 30.7036 31.136 30.7036 29.504C30.7036 27.968 29.4076 26.528 27.6796 26.528C25.9036 26.528 24.5596 27.92 24.5596 29.504C24.5596 31.136 25.9036 32.576 27.6796 32.576Z" fill="#1A1A1A"/>
<path d="M44.1687 32.576C49.8807 32.576 54.7767 28.352 54.7767 22.112C54.7767 16.544 50.9367 13.184 46.1847 13.184C43.4487 13.184 40.7127 14.48 38.7447 16.16L38.6967 16.112C40.4727 9.29596 45.4647 2.28796 54.7767 0.847961L54.7287 0.511963C42.2487 1.61596 32.9367 9.82396 32.9367 20.816C32.9367 27.392 37.3527 32.576 44.1687 32.576ZM44.5047 32.096C39.9447 32.096 38.0727 27.344 38.0727 20.96C38.0727 19.376 38.3607 17.312 38.6487 16.928C39.7527 15.824 41.4327 15.056 43.3047 15.056C47.0487 15.056 49.8807 18.464 49.8807 23.456C49.8807 28.928 47.7687 32.096 44.5047 32.096Z" fill="#1A1A1A"/>
</svg>
