<svg width="55" height="55" viewBox="0 0 55 55" fill="none" xmlns="http://www.w3.org/2000/svg">
<path d="M16.5746 16.0403C17.1826 15.3684 17.6518 14.5829 17.9552 13.729C18.2587 12.8751 18.3902 11.9696 18.3425 11.0647C18.2947 10.1598 18.0685 9.2732 17.6768 8.45599C17.2852 7.63879 16.7359 6.90708 16.0604 6.30293C15.385 5.69879 14.5968 5.23414 13.7412 4.9357C12.8855 4.63727 11.9793 4.51093 11.0747 4.56397C10.17 4.61701 9.28477 4.84837 8.46986 5.24475C7.65494 5.64113 6.92643 6.1947 6.32623 6.87363C5.12313 8.23453 4.5075 10.0162 4.61382 11.8296C4.72013 13.6429 5.53974 15.3405 6.89362 16.5514C8.2475 17.7624 10.0256 18.3884 11.8395 18.2926C13.6534 18.1968 15.3557 17.3871 16.5746 16.0403ZM16.5746 16.0403L45.8254 41.2486M16.5746 38.957C17.1826 39.6289 17.6518 40.4144 17.9552 41.2683C18.2587 42.1222 18.3902 43.0276 18.3425 43.9326C18.2947 44.8375 18.0685 45.7241 17.6768 46.5413C17.2852 47.3585 16.7359 48.0902 16.0604 48.6943C15.385 49.2985 14.5968 49.7631 13.7412 50.0616C12.8855 50.36 11.9793 50.4863 11.0747 50.4333C10.17 50.3803 9.28477 50.1489 8.46986 49.7525C7.65494 49.3561 6.92643 48.8026 6.32623 48.1236C5.12313 46.7627 4.5075 44.981 4.61382 43.1677C4.72013 41.3544 5.53974 39.6568 6.89362 38.4458C8.2475 37.2348 10.0256 36.6089 11.8395 36.7046C13.6534 36.8004 15.3557 37.6101 16.5746 38.957ZM16.5746 38.957L45.8254 13.7486" stroke="#765B25" stroke-width="4.5" stroke-linecap="round" stroke-linejoin="round"/>
</svg>
