<svg width="55" height="58" viewBox="0 0 55 58" fill="none" xmlns="http://www.w3.org/2000/svg">
<g clip-path="url(#clip0_1_47)">
<path fill-rule="evenodd" clip-rule="evenodd" d="M20.0948 53.1019C19.0462 55.6476 16.1281 57.1169 13.4177 55.666C8.2973 52.9186 4.77357 49.7783 2.61879 46.2898C0.43899 42.7567 -0.234221 39.0455 0.0685989 35.4207C0.659223 28.3938 4.93875 21.7126 8.48249 16.7626C13.1975 10.1836 19.1938 6.54834 25.5005 6.54834C31.8071 6.54834 37.8035 10.1836 42.5185 16.7626C46.0247 21.655 50.627 28.3755 51.3778 35.4233C51.7657 39.0821 51.1276 42.8405 48.8552 46.4076C46.6178 49.9224 42.9164 53.06 37.4982 55.7969C34.7878 57.1667 31.8972 55.6738 30.8837 53.1176C29.0768 54.3067 27.1848 55.0007 25.503 55.0007C23.8112 55.0007 21.9067 54.2988 20.0923 53.1019H20.0948ZM12.4867 19.9055C16.531 14.2641 21.1709 11.7864 25.5005 11.7864C29.8301 11.7864 34.47 14.2641 38.5142 19.9055C42.1531 24.9812 45.827 30.5964 46.4026 36.0022C46.6754 38.5688 46.2399 41.0674 44.6908 43.5031C43.1241 45.9598 40.3086 48.5317 35.5111 50.9857V48.626C37.6784 45.6141 39.265 41.5755 39.265 36.6674C39.265 35.6643 39.215 34.69 39.1124 33.7524C39.0434 33.1174 38.755 32.5308 38.3014 32.1029C37.8478 31.675 37.2604 31.4354 36.6498 31.4293C33.909 31.4003 31.2723 30.3266 29.2337 28.4092C27.1951 26.4918 25.8945 23.8623 25.5756 21.0133C25.53 20.6378 25.4078 20.2768 25.2175 19.9549C25.0271 19.6329 24.7729 19.3575 24.4721 19.1472C24.1712 18.9369 23.8308 18.7966 23.4737 18.7359C23.1166 18.6751 22.7512 18.6953 22.4022 18.795C16.4109 20.5864 11.7359 27.2519 11.7359 36.6674C11.7359 41.5755 13.3226 45.6141 15.4899 48.626V50.8888C11.0177 48.4583 8.34235 45.9021 6.82324 43.4429C5.30413 40.9862 4.83864 38.4614 5.05637 35.8817C5.50685 30.4995 8.90794 24.8921 12.4867 19.9055ZM16.7412 36.6674C16.7412 30.8479 18.8685 27.045 21.3536 25.1122C22.3099 28.0573 24.0181 30.6724 26.2931 32.6741C28.5681 34.6759 31.3231 35.988 34.2597 36.4683C34.2898 40.156 33.0885 43.7729 30.6935 46.5045C28.6163 48.88 26.419 49.7626 25.5005 49.7626C24.5845 49.7626 22.3897 48.88 20.3075 46.5045C18.3379 44.2548 16.7412 40.9443 16.7412 36.6674Z" fill="#765B25"/>
</g>
<defs>
<clipPath id="clip0_1_47">
<rect width="55" height="57.2449" fill="white"/>
</clipPath>
</defs>
</svg>
