<svg width="21" height="17" viewBox="0 0 21 17" fill="none" xmlns="http://www.w3.org/2000/svg">
<path d="M17.0568 16.4557C20.0624 16.4557 21.4149 13.9009 20.8889 12.323C19.2358 12.6235 15.1031 12.2478 15.1031 8.2654C15.1031 4.43326 18.259 1.95364 20.9641 0.300561L20.6635 0C15.4788 2.10392 11.6467 6.3869 11.6467 10.5196C11.6467 14.2766 14.0512 16.4557 17.0568 16.4557ZM5.41008 16.4557C8.41568 16.4557 9.7682 13.9009 9.24222 12.323C7.58914 12.6235 3.45644 12.2478 3.45644 8.2654C3.45644 4.43326 6.61232 1.95364 9.31736 0.300561L9.0168 0C3.83214 2.10392 0 6.3869 0 10.5196C0 14.2766 2.40448 16.4557 5.41008 16.4557Z" fill="#C5A575"/>
</svg>
