<svg width="9" height="25" viewBox="0 0 9 25" fill="none" xmlns="http://www.w3.org/2000/svg">
<path d="M5 1C5 0.723858 4.77614 0.5 4.5 0.5C4.22386 0.5 4 0.723858 4 1L5 1ZM4.14645 24.3536C4.34171 24.5488 4.65829 24.5488 4.85355 24.3536L8.03553 21.1716C8.2308 20.9763 8.2308 20.6597 8.03553 20.4645C7.84027 20.2692 7.52369 20.2692 7.32843 20.4645L4.5 23.2929L1.67157 20.4645C1.47631 20.2692 1.15973 20.2692 0.964465 20.4645C0.769203 20.6597 0.769203 20.9763 0.964465 21.1716L4.14645 24.3536ZM4 1L4 24L5 24L5 1L4 1Z" fill="black"/>
</svg>
