<svg width="10" height="7" viewBox="0 0 10 7" fill="none" xmlns="http://www.w3.org/2000/svg">
<path d="M10.0615 1.80703L5.51146 6.37057C5.45729 6.42474 5.39861 6.46302 5.33542 6.48541C5.27222 6.50816 5.20451 6.51953 5.13229 6.51953C5.06007 6.51953 4.99236 6.50816 4.92917 6.48541C4.86597 6.46302 4.80729 6.42474 4.75313 6.37057L0.189583 1.80703C0.0631942 1.68064 -2.1842e-07 1.52266 -2.26707e-07 1.33307C-2.34994e-07 1.14349 0.0677081 0.980989 0.203125 0.845573C0.338541 0.710156 0.496528 0.642448 0.677083 0.642448C0.857639 0.642448 1.01562 0.710156 1.15104 0.845573L5.13229 4.82682L9.11354 0.845573C9.23993 0.719184 9.39557 0.655989 9.58046 0.655989C9.76571 0.655989 9.92604 0.723697 10.0615 0.859114C10.1969 0.994531 10.2646 1.15252 10.2646 1.33307C10.2646 1.51363 10.1969 1.67161 10.0615 1.80703Z" fill="#FFFCF5"/>
</svg>
