<svg width="34" height="34" viewBox="0 0 34 34" fill="none" xmlns="http://www.w3.org/2000/svg">
<path d="M20.1167 4.073C18.379 4.073 16.7124 4.7633 15.4837 5.99206C14.2549 7.22081 13.5646 8.88736 13.5646 10.6251V14.273H10.0583C9.88268 14.273 9.73959 14.4147 9.73959 14.5917V19.4084C9.73959 19.5841 9.88126 19.7272 10.0583 19.7272H13.5646V29.6084C13.5646 29.7841 13.7063 29.9272 13.8833 29.9272H18.7C18.8757 29.9272 19.0188 29.7855 19.0188 29.6084V19.7272H22.5562C22.7021 19.7272 22.8296 19.628 22.865 19.4863L24.0692 14.6697C24.081 14.6227 24.082 14.5736 24.072 14.5261C24.062 14.4787 24.0414 14.4342 24.0116 14.3959C23.9818 14.3577 23.9437 14.3267 23.9002 14.3054C23.8566 14.2841 23.8088 14.273 23.7603 14.273H19.0188V10.6251C19.0188 10.4809 19.0472 10.3381 19.1023 10.2049C19.1575 10.0717 19.2384 9.95069 19.3403 9.84874C19.4423 9.74679 19.5633 9.66591 19.6965 9.61074C19.8297 9.55556 19.9725 9.52716 20.1167 9.52716H23.8C23.9757 9.52716 24.1188 9.3855 24.1188 9.20841V4.39175C24.1188 4.21608 23.9771 4.073 23.8 4.073H20.1167Z" fill="#FFFBF2"/>
</svg>
