<svg width="32" height="28" viewBox="0 0 32 28" fill="none" xmlns="http://www.w3.org/2000/svg">
<path fill-rule="evenodd" clip-rule="evenodd" d="M31.3363 1.6422C31.3363 2.38414 30.7348 2.9856 29.9929 2.9856L1.78167 2.98559C1.03973 2.98559 0.438273 2.38414 0.438273 1.6422C0.438273 0.900265 1.03973 0.298807 1.78167 0.298808L29.9929 0.298811C30.7348 0.298811 31.3363 0.900268 31.3363 1.6422Z" fill="#FFFBF2"/>
<path fill-rule="evenodd" clip-rule="evenodd" d="M31.3363 13.7328C31.3363 14.4747 30.7348 15.0762 29.9929 15.0762L1.78167 15.0762C1.03973 15.0762 0.438273 14.4747 0.438273 13.7328C0.438273 12.9908 1.03973 12.3894 1.78167 12.3894L29.9929 12.3894C30.7348 12.3894 31.3363 12.9908 31.3363 13.7328Z" fill="#FFFBF2"/>
<path fill-rule="evenodd" clip-rule="evenodd" d="M31.3363 25.8234C31.3363 26.5653 30.7348 27.1667 29.9929 27.1667L1.78167 27.1667C1.03973 27.1667 0.438273 26.5653 0.438273 25.8234C0.438273 25.0814 1.03973 24.48 1.78167 24.48L29.9929 24.48C30.7348 24.48 31.3363 25.0814 31.3363 25.8234Z" fill="#FFFBF2"/>
</svg>
