<svg width="19" height="36" viewBox="0 0 19 36" fill="none" xmlns="http://www.w3.org/2000/svg">
<path d="M10.5316 1.89941C10.5316 1.20906 9.97197 0.649414 9.28162 0.649414C8.59126 0.649414 8.03162 1.20906 8.03162 1.89941L10.5316 1.89941ZM8.39773 35.4266C8.88589 35.9148 9.67735 35.9148 10.1655 35.4266L18.1205 27.4717C18.6086 26.9835 18.6086 26.192 18.1205 25.7039C17.6323 25.2157 16.8408 25.2157 16.3527 25.7039L9.28162 32.775L2.21055 25.7039C1.72239 25.2157 0.930938 25.2157 0.442782 25.7039C-0.0453729 26.192 -0.0453728 26.9835 0.442783 27.4717L8.39773 35.4266ZM8.03162 1.89941L8.03162 34.5427L10.5316 34.5427L10.5316 1.89941L8.03162 1.89941Z" fill="#FFFBF2"/>
</svg>
