<svg width="48" height="27" viewBox="0 0 48 27" fill="none" xmlns="http://www.w3.org/2000/svg">
<path fill-rule="evenodd" clip-rule="evenodd" d="M33.5331 4.44663L42.4161 5.25417C42.9612 5.30372 43.3629 5.78579 43.3133 6.33089L42.5058 15.2139C42.4563 15.759 41.9742 16.1607 41.4291 16.1111C40.884 16.0616 40.4823 15.5795 40.5318 15.0344L41.1227 8.53426L31.068 16.9132C30.6475 17.2636 30.0226 17.2068 29.6722 16.7863C29.3218 16.3658 29.3786 15.7409 29.7991 15.3905L39.8538 7.01154L33.3536 6.42062C32.8085 6.37106 32.4068 5.889 32.4564 5.3439C32.5059 4.79879 32.988 4.39707 33.5331 4.44663Z" fill="#1A1A1A"/>
<path d="M7.54 1H18.46C22.62 1 26 4.38 26 8.54V19.46C26 21.4597 25.2056 23.3776 23.7916 24.7916C22.3776 26.2056 20.4597 27 18.46 27H7.54C3.38 27 0 23.62 0 19.46V8.54C0 6.54027 0.794391 4.62244 2.20842 3.20842C3.62244 1.79439 5.54027 1 7.54 1ZM7.28 3.6C6.03879 3.6 4.84841 4.09307 3.97074 4.97074C3.09307 5.84841 2.6 7.03879 2.6 8.28V19.72C2.6 22.307 4.693 24.4 7.28 24.4H18.72C19.9612 24.4 21.1516 23.9069 22.0293 23.0293C22.9069 22.1516 23.4 20.9612 23.4 19.72V8.28C23.4 5.693 21.307 3.6 18.72 3.6H7.28ZM19.825 5.55C20.256 5.55 20.6693 5.7212 20.974 6.02595C21.2788 6.3307 21.45 6.74402 21.45 7.175C21.45 7.60598 21.2788 8.0193 20.974 8.32405C20.6693 8.62879 20.256 8.8 19.825 8.8C19.394 8.8 18.9807 8.62879 18.6759 8.32405C18.3712 8.0193 18.2 7.60598 18.2 7.175C18.2 6.74402 18.3712 6.3307 18.6759 6.02595C18.9807 5.7212 19.394 5.55 19.825 5.55ZM13 7.5C14.7239 7.5 16.3772 8.18482 17.5962 9.40381C18.8152 10.6228 19.5 12.2761 19.5 14C19.5 15.7239 18.8152 17.3772 17.5962 18.5962C16.3772 19.8152 14.7239 20.5 13 20.5C11.2761 20.5 9.62279 19.8152 8.40381 18.5962C7.18482 17.3772 6.5 15.7239 6.5 14C6.5 12.2761 7.18482 10.6228 8.40381 9.40381C9.62279 8.18482 11.2761 7.5 13 7.5ZM13 10.1C11.9657 10.1 10.9737 10.5109 10.2423 11.2423C9.51089 11.9737 9.1 12.9657 9.1 14C9.1 15.0343 9.51089 16.0263 10.2423 16.7577C10.9737 17.4891 11.9657 17.9 13 17.9C14.0343 17.9 15.0263 17.4891 15.7577 16.7577C16.4891 16.0263 16.9 15.0343 16.9 14C16.9 12.9657 16.4891 11.9737 15.7577 11.2423C15.0263 10.5109 14.0343 10.1 13 10.1Z" fill="#1A1A1A"/>
</svg>
