<svg width="14" height="18" viewBox="0 0 14 18" fill="none" xmlns="http://www.w3.org/2000/svg">
<path d="M7 9C7.48125 9 7.89338 8.8236 8.23638 8.4708C8.57938 8.118 8.75058 7.6944 8.75 7.2C8.75 6.705 8.5785 6.2811 8.2355 5.9283C7.8925 5.5755 7.48067 5.3994 7 5.4C6.51875 5.4 6.10662 5.5764 5.76362 5.9292C5.42062 6.282 5.24942 6.7056 5.25 7.2C5.25 7.695 5.4215 8.1189 5.7645 8.4717C6.1075 8.8245 6.51933 9.0006 7 9ZM7 15.615C8.77917 13.935 10.099 12.4086 10.9594 11.0358C11.8198 9.663 12.25 8.4444 12.25 7.38C12.25 5.745 11.7431 4.4064 10.7292 3.3642C9.71542 2.322 8.47233 1.8006 7 1.8C5.52708 1.8 4.28371 2.3214 3.26987 3.3642C2.25604 4.407 1.74942 5.7456 1.75 7.38C1.75 8.445 2.18021 9.6639 3.04062 11.0367C3.90104 12.4095 5.22083 13.9356 7 15.615ZM7 18C4.65208 15.945 2.89858 14.0364 1.7395 12.2742C0.580417 10.512 0.000583333 8.8806 0 7.38C0 5.13 0.703792 3.3375 2.11138 2.0025C3.51896 0.6675 5.1485 0 7 0C8.85208 0 10.4819 0.6675 11.8895 2.0025C13.2971 3.3375 14.0006 5.13 14 7.38C14 8.88 13.4202 10.5114 12.2605 12.2742C11.1008 14.037 9.34733 15.9456 7 18Z" fill="#373737"/>
</svg>
