<svg xmlns="http://www.w3.org/2000/svg" viewBox="0 0 439.24 202.75"><defs><style>.cls-1{fill:#fffbf2;}.cls-2{fill:#fff;}</style></defs><title>salon-logo</title><g id="Layer_1" data-name="Layer 1"><path class="cls-1" d="M113.43,167.47V155.54h3.28V185h-3.28V170.51H98.37V185H95.1V155.54h3.27v11.93Z"/><path class="cls-1" d="M130.9,176.6,127.35,185h-3.59l13.57-30.82L150.56,185h-3.63l-3.47-8.35Zm6.36-14.82-5,11.78h9.95Z"/><path class="cls-1" d="M160.81,185h-3.28V155.54h3.28Z"/><path class="cls-1" d="M173.76,185h-3.28V155.54h4.25c5.58,0,10.77,1.48,10.77,8.11a7.69,7.69,0,0,1-7.37,8.11L187.49,185h-4L174.58,172h-.82Zm0-15.8h1c3.71,0,7.45-.7,7.45-5.27,0-4.83-3.55-5.3-7.49-5.3h-1Z"/><path class="cls-1" d="M224.38,161.27c-1.17-2-2.58-3.2-5.07-3.2a4.67,4.67,0,0,0-4.88,4.57c0,2.53,2.62,3.7,4.61,4.6l2,.86c3.82,1.67,7,3.58,7,8.27a9.28,9.28,0,0,1-18.4,1.48l3.19-.9a6.06,6.06,0,0,0,5.89,5.46,5.92,5.92,0,0,0,6.05-5.73c0-3.43-2.69-4.6-5.42-5.85l-1.8-.78c-3.43-1.56-6.39-3.32-6.39-7.53,0-4.56,3.86-7.49,8.23-7.49a8.45,8.45,0,0,1,7.6,4.56Z"/><path class="cls-1" d="M241,176.6,237.4,185h-3.59l13.58-30.82L260.61,185H257l-3.47-8.35Zm6.36-14.82-5,11.78h9.94Z"/><path class="cls-1" d="M270.78,181.9h8.12v3H267.51V155.54h3.27Z"/><path class="cls-1" d="M315,170.28A15.33,15.33,0,1,1,299.68,155,15.25,15.25,0,0,1,315,170.28Zm-27.38,0a12.06,12.06,0,1,0,12.05-12.17A12.17,12.17,0,0,0,287.63,170.24Z"/><path class="cls-1" d="M323.35,154.29l22.94,24V155.54h3.27v30.73l-22.93-24V185h-3.28Z"/><path class="cls-2" d="M433.48,138.74H10.72a1,1,0,1,1,0-2H433.48a1,1,0,0,1,0,2Z"/><path class="cls-1" d="M87.36,100.47V111a21.56,21.56,0,0,0,.35,4.52A5.14,5.14,0,0,0,89,118a5.06,5.06,0,0,0,1.87,1.24,9.28,9.28,0,0,0,2.79.49v.69H74.57v-.69a9.4,9.4,0,0,0,2.79-.49A5.11,5.11,0,0,0,79.22,118a4.81,4.81,0,0,0,1.28-2.42,22.44,22.44,0,0,0,.33-4.53v-22a22.62,22.62,0,0,0-.33-4.54,5.07,5.07,0,0,0-3.16-3.67,9.75,9.75,0,0,0-2.77-.48v-.68H89q3.6,0,4.74,0A23.28,23.28,0,0,1,100.94,81a9.87,9.87,0,0,1,4.58,3.57,9.5,9.5,0,0,1,1.62,5.5,9.05,9.05,0,0,1-3.52,7.46,10.26,10.26,0,0,1-2.37,1.37,20.37,20.37,0,0,1-3.48,1,9.26,9.26,0,0,1,2.66,1.55,7,7,0,0,1,1.25,1.57c.38.63.95,1.74,1.7,3.33q2.66,5.46,4,8a24.82,24.82,0,0,0,2.29,3.65,4.68,4.68,0,0,0,1.44,1.28,5.47,5.47,0,0,0,1.93.48v.69h-9.91c-.49-1.1-.81-1.79-1-2.09l-2.09-4.75A74.35,74.35,0,0,0,96.31,106a15.41,15.41,0,0,0-3.49-4.45,5.27,5.27,0,0,0-1.73-.85,8.6,8.6,0,0,0-2.26-.25Zm0-.66H88.5a24,24,0,0,0,5.29-.41,7,7,0,0,0,3-1.73,9.81,9.81,0,0,0,3.13-7.4A10.84,10.84,0,0,0,99,85.84a9.09,9.09,0,0,0-2.52-3.42,7.23,7.23,0,0,0-3-1.41,22.83,22.83,0,0,0-4.92-.41H87.36Z"/><path class="cls-1" d="M158,120.4h-19.6v-.69a9,9,0,0,0,3.7-.9,3.61,3.61,0,0,0,1.85-3.22,9.33,9.33,0,0,0-.84-3.28l-.51-1.25-2.86-7H126.65l-1.56,4.12-.74,1.85a14.57,14.57,0,0,0-1.34,5.16,4.37,4.37,0,0,0,.49,2,4.3,4.3,0,0,0,1.33,1.56,6.08,6.08,0,0,0,3,.95v.69H114.45v-.69a6.17,6.17,0,0,0,2.77-.78,8,8,0,0,0,2.33-2.2,17.7,17.7,0,0,0,1.86-3.15c.61-1.28,1.41-3.21,2.4-5.77l10.92-28.13h1.7l13,31.35a49.47,49.47,0,0,0,2.32,5.07,7.77,7.77,0,0,0,1.88,2.3,5.37,5.37,0,0,0,1.64.82,16.53,16.53,0,0,0,2.78.49Zm-18.74-17.6L133,87.34l-5.91,15.46Z"/><path class="cls-1" d="M198.59,79.68l.36,13-.69.06q-2.06-6.61-5.28-9.85a10.57,10.57,0,0,0-7.78-3.24,12.1,12.1,0,0,0-6.1,1.45,14.75,14.75,0,0,0-4.76,4.69,28.2,28.2,0,0,0-3.4,22.93,20.31,20.31,0,0,0,3.13,6.4q4,5.37,9.76,5.37a9.7,9.7,0,0,0,4.26-1,8.63,8.63,0,0,0,5-8.14,5.24,5.24,0,0,0-1.59-4.27c-1.07-.87-2.82-1.31-5.27-1.31v-.69h19v.69a12.22,12.22,0,0,0-3.68.73,3.11,3.11,0,0,0-1.57,1.69,15.47,15.47,0,0,0-.56,5.22c0,.71,0,1.83.11,3.34l.06.68A5.34,5.34,0,0,0,198,117a3.24,3.24,0,0,0-1.67.68,20.15,20.15,0,0,1-6,2.75,27.24,27.24,0,0,1-7.25,1,24.08,24.08,0,0,1-9.47-1.79,16.83,16.83,0,0,1-6.85-5.13,18.25,18.25,0,0,1-3-6,25.08,25.08,0,0,1-1-7.33,25.55,25.55,0,0,1,1.91-9.94,19.84,19.84,0,0,1,5.36-7.57A20.3,20.3,0,0,1,176.46,80a23,23,0,0,1,7.81-1.32,20.58,20.58,0,0,1,4.43.45A23.58,23.58,0,0,1,193,80.54l1.76.81a3.2,3.2,0,0,0,1.19.27c.8,0,1.41-.65,1.83-1.94Z"/><path class="cls-1" d="M222.33,100.47V111a22.43,22.43,0,0,0,.34,4.52,5.16,5.16,0,0,0,1.27,2.43,5.06,5.06,0,0,0,1.87,1.24,9.27,9.27,0,0,0,2.78.49v.69H209.53v-.69a9.28,9.28,0,0,0,2.79-.49,5.06,5.06,0,0,0,1.87-1.24,4.89,4.89,0,0,0,1.28-2.42,22.44,22.44,0,0,0,.33-4.53v-22a22.62,22.62,0,0,0-.33-4.54,5.07,5.07,0,0,0-3.16-3.67,9.83,9.83,0,0,0-2.78-.48v-.68h14.38c2.41,0,4,0,4.75,0A23.21,23.21,0,0,1,235.9,81a9.82,9.82,0,0,1,4.58,3.57,9.44,9.44,0,0,1,1.63,5.5,9.08,9.08,0,0,1-3.52,7.46,10.69,10.69,0,0,1-2.37,1.37,20.65,20.65,0,0,1-3.48,1,9.4,9.4,0,0,1,2.66,1.55,7.25,7.25,0,0,1,1.25,1.57c.38.63.94,1.74,1.7,3.33q2.66,5.46,4,8a25.84,25.84,0,0,0,2.28,3.65,4.7,4.7,0,0,0,1.45,1.28,5.47,5.47,0,0,0,1.92.48v.69h-9.9c-.5-1.1-.82-1.79-1-2.09l-2.09-4.75a76.49,76.49,0,0,0-3.79-7.54,15.58,15.58,0,0,0-3.49-4.45,5.36,5.36,0,0,0-1.73-.85,8.68,8.68,0,0,0-2.27-.25Zm0-.66h1.13a24,24,0,0,0,5.3-.41,7.1,7.1,0,0,0,3-1.73,9.84,9.84,0,0,0,3.13-7.4,10.84,10.84,0,0,0-.91-4.43,9.3,9.3,0,0,0-2.52-3.42,7.29,7.29,0,0,0-3-1.41,22.93,22.93,0,0,0-4.93-.41h-1.22Z"/><path class="cls-1" d="M293,120.4H273.4v-.69a8.92,8.92,0,0,0,3.69-.9,3.59,3.59,0,0,0,1.85-3.22,9.5,9.5,0,0,0-.83-3.28l-.51-1.25-2.86-7H261.61l-1.55,4.12-.74,1.85a14.63,14.63,0,0,0-1.35,5.16,4.38,4.38,0,0,0,.5,2,4.27,4.27,0,0,0,1.32,1.56,6.12,6.12,0,0,0,3,.95v.69H249.41v-.69a6.18,6.18,0,0,0,2.78-.78,7.88,7.88,0,0,0,2.32-2.2,17.11,17.11,0,0,0,1.87-3.15c.6-1.28,1.4-3.21,2.4-5.77L269.7,79.68h1.7l13,31.35a49,49,0,0,0,2.33,5.07,7.62,7.62,0,0,0,1.88,2.3,5.26,5.26,0,0,0,1.64.82,16.37,16.37,0,0,0,2.77.49Zm-18.73-17.6L268,87.34l-5.91,15.46Z"/><path class="cls-1" d="M303.7,85.08v26a21.56,21.56,0,0,0,.34,4.53,5,5,0,0,0,3.16,3.67,9.68,9.68,0,0,0,2.76.48v.69H296.21v-.69a9.68,9.68,0,0,0,2.76-.48,4.88,4.88,0,0,0,1.89-1.25,5.07,5.07,0,0,0,1.27-2.43,21.71,21.71,0,0,0,.34-4.52V89a21.4,21.4,0,0,0-.34-4.48,5.06,5.06,0,0,0-1.27-2.44A4.82,4.82,0,0,0,299,80.84a9.77,9.77,0,0,0-2.79-.48v-.68H307.7l24.22,30.9V89.05a21.58,21.58,0,0,0-.35-4.54,5,5,0,0,0-3.16-3.67,9.61,9.61,0,0,0-2.76-.48v-.68H339.4v.68a6.16,6.16,0,0,0-4.65,1.73,5.06,5.06,0,0,0-1.27,2.44,21.4,21.4,0,0,0-.34,4.48V120.4H331.8Z"/><path class="cls-1" d="M381.43,79.47l.36,13.33h-.69l-.51-1.31c-.69-1.91-1.26-3.33-1.7-4.26a14.86,14.86,0,0,0-3.37-4.6,10.84,10.84,0,0,0-3.46-2.29,10.67,10.67,0,0,0-4-.72,11.34,11.34,0,0,0-5.85,1.46,14.9,14.9,0,0,0-4.06,3.68,21.75,21.75,0,0,0-3.07,5.48,26.78,26.78,0,0,0-1.7,9.84,28.66,28.66,0,0,0,1.16,8.44,17,17,0,0,0,3.4,6.3,13.8,13.8,0,0,0,10.92,4.71,15.15,15.15,0,0,0,6.12-1.18,9.56,9.56,0,0,0,4.2-3.32,17,17,0,0,0,2.51-6.69l.68.12a15.85,15.85,0,0,1-2.56,7.49,12,12,0,0,1-5.27,4.06,20.07,20.07,0,0,1-7.77,1.4,25.41,25.41,0,0,1-7.87-1.22,17.37,17.37,0,0,1-9.37-7.12,21.94,21.94,0,0,1-3.37-12.27,25.41,25.41,0,0,1,2-10.07,18.57,18.57,0,0,1,5.49-7.41,21.38,21.38,0,0,1,6.49-3.42,22.46,22.46,0,0,1,15.2.11l2.44.8a3.67,3.67,0,0,0,1.25.27,1.48,1.48,0,0,0,1.23-.63,5,5,0,0,0,.5-1Z"/><path class="cls-1" d="M420.08,79.68l.51,9.84-.68,0a12.62,12.62,0,0,0-1.29-4.14,8.85,8.85,0,0,0-2.59-2.9A8.68,8.68,0,0,0,412.72,81a23.74,23.74,0,0,0-5.07-.44h-6.83V98.5h1.78a17.28,17.28,0,0,0,4.09-.36,4.54,4.54,0,0,0,2.24-1.28,5.47,5.47,0,0,0,1.24-2,18,18,0,0,0,.67-3.48l.68,0-.12,16h-.68a16.35,16.35,0,0,0-.79-3.7,7,7,0,0,0-1.45-2.38,5.26,5.26,0,0,0-2.33-1.41,12.66,12.66,0,0,0-3.63-.44h-1.7v6.83c0,2.72.06,4.71.2,5.95a9.85,9.85,0,0,0,.81,3.12,6.34,6.34,0,0,0,3.09,3.14,12.61,12.61,0,0,0,5.47,1,17.07,17.07,0,0,0,6-.91,8.81,8.81,0,0,0,3.93-2.82,11,11,0,0,0,1.75-2.92,25.75,25.75,0,0,0,1.24-4.33l.68,0-.39,11.88H388v-.69a9.68,9.68,0,0,0,2.76-.48,5,5,0,0,0,3.16-3.68,21.71,21.71,0,0,0,.34-4.52v-22a21.64,21.64,0,0,0-.34-4.52,5.06,5.06,0,0,0-1.27-2.44,4.89,4.89,0,0,0-1.86-1.25,9.77,9.77,0,0,0-2.79-.48v-.68Z"/><path class="cls-1" d="M27.47,35.53c3.73-6.32,5.15-8.76,4-17s-12.22-7.29-14.49-7S9.72,3.35,6.27,2.34c-1.42-.42-5.57-1,1.8,5.57s2.19,9.66,2.65,15.23a19.65,19.65,0,0,0,7,13.16A3.69,3.69,0,0,1,18.93,38c1.27,3.76,5.38,15.87,6.76,18.74,1.62,3.4,6.32,2.27,5.67-2.43S23.74,41.85,27.47,35.53Zm-4.31-3.14c-4.24.68-7.12-2.21-8.31-7.13s1.71-9.13,5.26-9.51c4.56-.47,7,1.87,7.81,6.11S27.41,31.71,23.16,32.39Z"/><path class="cls-1" d="M30.57,57.76c-1-.54-3.64.49-3.64.49l4.2,60.88a1.31,1.31,0,0,0,1.05,1.21c1.42.26,3.9-.09,4.1-5.62.23-6.1,2.22-45.91,2.22-47.66S31.62,58.29,30.57,57.76Zm3,21.61a2.84,2.84,0,1,1,2.84-2.84A2.84,2.84,0,0,1,33.54,79.37Z"/><path class="cls-1" d="M45.36,9.08c-7.42,0-11.59,7.22-11.59,13.7S41,33.87,39.56,38s-6.87,17.39-5.83,19.17c.81,1.41,4.94,6.08,5.3,5.23s6.63-24.56,8.39-26,9.17-8.4,8.86-14.59S52.77,9.08,45.36,9.08Zm6.91,14c-.19,3.2-3.06,8.3-7.31,8.24s-6.58-1.58-7.66-7.45S39.38,13.15,45,13.17,52.47,19.87,52.27,23.06Z"/><path class="cls-1" d="M44,54.92c-.95,2.13-2.22,7.52-2.88,9.22S53.35,61.58,61,63.58s10.41,8.82,10.92,7.31V49.16C71.27,47.86,67,57,55.25,57S45.17,52.24,44,54.92Z"/><path class="cls-1" d="M57.59,16.23a19.07,19.07,0,0,1,.95,8.14.12.12,0,0,0,.08.14L93.71,37.35a.39.39,0,0,0,.53-.37V14.9a.39.39,0,0,0-.41-.39L57.71,16A.13.13,0,0,0,57.59,16.23Z"/></g></svg>