<svg xmlns="http://www.w3.org/2000/svg" viewBox="0 0 408.67 128.23"><defs><style>.cls-1{fill:#1a1a1a;}</style></defs><title>shiseido-professional-logo</title><g id="Layer_1" data-name="Layer 1"><path class="cls-1" d="M127.17,34.06V10.73h9.11v52.8h-9V38.07H98.88c0,.57-.07,1.1-.07,1.63,0,7.48,0,14.95,0,22.43,0,1.14-.3,1.56-1.49,1.51-2.07-.09-4.14-.1-6.21,0-1.24.06-1.55-.38-1.55-1.58q0-21.79,0-43.58c0-2.23,0-4.47,0-6.71,0-.89.27-1.18,1.16-1.16,2.2.05,4.4.07,6.59,0,1.14,0,1.52.28,1.51,1.47-.06,6.8,0,13.6-.06,20.4,0,1.3.35,1.62,1.63,1.61,8.44,0,16.89,0,25.33,0Z"/><path class="cls-1" d="M297,37.11c0-8.32,0-16.64,0-24.95,0-1.23.32-1.58,1.55-1.56,6.63.07,13.26-.14,19.88.14,7.11.3,13.6,2.51,18.66,7.85a25.41,25.41,0,0,1,6.66,14.21,27,27,0,0,1-5.85,21.83,23.11,23.11,0,0,1-16.21,8.42c-5.61.54-11.28.42-16.93.56-2.11,0-4.23-.06-6.34,0-1.14,0-1.42-.36-1.41-1.45C297.05,53.83,297,45.47,297,37.11Zm9.28-22.7c0,.67-.07,1.2-.07,1.74q0,20.78,0,41.56c0,.38,0,.76,0,1.14,0,.65.27.89.91.88,3.88-.1,7.79.1,11.64-.31,6.85-.75,11.87-4.28,14.25-10.91a34,34,0,0,0,.32-22,15.93,15.93,0,0,0-12.43-11.41C316.14,14,311.27,14.58,306.31,14.41Z"/><path class="cls-1" d="M379.72,64.38c-7.62-.1-14.06-1.72-19.58-6a25.44,25.44,0,0,1-10.23-20.17c-.31-9.81,3.36-17.71,11.47-23.32,6.16-4.25,13.16-5.48,20.52-5a29.23,29.23,0,0,1,15.45,5.39A25.39,25.39,0,0,1,408,33.56c1,8.29-1.1,15.68-6.79,21.87-4.71,5.13-10.74,7.75-17.58,8.62C382.11,64.25,380.54,64.32,379.72,64.38ZM358.88,37.11c.31,2.59.48,5.21.95,7.77.83,4.44,2.57,8.48,6,11.58,4.28,3.85,9.48,4.82,15,4.47,8.1-.53,13.79-4.52,16.39-12.31a35.13,35.13,0,0,0-.38-24.07A16.3,16.3,0,0,0,386,14.2a24,24,0,0,0-10-.8c-5.86.71-10.48,3.33-13.45,8.54C359.82,26.63,359.07,31.77,358.88,37.11Z"/><path class="cls-1" d="M100.24,4.55,99,7.06c-3.23-.81-6.2-1.78-9.25-2.27C81.6,3.5,74.84,6.33,69.21,12.2c-4.48,4.66-6.63,10.51-8.58,16.47s-3.71,12.16-6.39,18C49.53,56.87,42,63.73,31.1,66.59,21.84,69,13.29,67,5.37,61.87,3.65,60.76,2.09,59.4.31,58.05L2.7,55.52c2.17,1.5,4.18,3,6.33,4.33a25.86,25.86,0,0,0,11.81,3.84c7.58.53,13.25-2.88,17.62-8.8,3.37-4.57,5.25-9.89,7.45-15,2.46-5.74,4.61-11.61,7.32-17.22A38.4,38.4,0,0,1,70.36,4.73C79.74-.12,89.3-.14,99,3.9,99.34,4.06,99.7,4.27,100.24,4.55Z"/><path class="cls-1" d="M229.39,10.65l1.48,0c10.89,0,21.78,0,32.67,0,1.27,0,1.56.41,1.52,1.59-.11,2.64.23,2.23-2.22,2.24-7.51,0-15,0-22.54,0h-1.62V33.67h23.87a26,26,0,0,1-.06,3.33c0,.26-.78.61-1.2.61-6.55,0-13.09,0-19.64,0h-3c0,.52-.06.92-.06,1.33,0,6.46,0,12.92,0,19.38,0,1.14.34,1.4,1.43,1.4,7.9,0,15.79,0,23.69,0h1.55c0,1.17,0,2.22,0,3.26,0,.22-.47.52-.76.59a6.44,6.44,0,0,1-1.39,0c-10.72,0-21.45,0-32.17,0-1.12,0-1.51-.24-1.51-1.46q.06-25.08,0-50.16C229.37,11.61,229.39,11.11,229.39,10.65Z"/><path class="cls-1" d="M225.23,11.35c-.06.26-.07.31-.08.34-.83,2.14-.83,2.14-3,1.5-6.73-2-12.61.62-15.79,7.45-2,4.3-3.51,8.85-5.1,13.33-2.35,6.65-4.75,13.27-8.34,19.37-2.82,4.79-6.56,8.63-12,10.38a20.21,20.21,0,0,1-17.6-2.24c-1.76-1.1-1.75-1.13-.56-2.84.14-.2.31-.38.48-.58,1.64.84,3.19,1.78,4.85,2.45,4,1.64,8.13,1.75,11.58-1.16a16.24,16.24,0,0,0,4.24-5.73c2.49-5.66,4.66-11.47,6.87-17.25a72,72,0,0,1,9.09-17.6c4.22-5.69,9.8-9.07,17-9.27A17.93,17.93,0,0,1,225.23,11.35Z"/><path class="cls-1" d="M158,37.1c0,8.31,0,16.63,0,24.94,0,1.32-.4,1.66-1.65,1.6-2.15-.1-4.31-.06-6.46,0-.89,0-1.16-.33-1.16-1.19q0-25.32,0-50.64c0-.85.22-1.21,1.14-1.19,2.28.05,4.56.08,6.83,0,1.16,0,1.29.47,1.28,1.43Q158,24.57,158,37.1Z"/><path class="cls-1" d="M284.65,10.63v1.53c0,16.63,0,33.26,0,49.89,0,1.34-.4,1.64-1.64,1.59-2.11-.1-4.22-.06-6.33,0-.9,0-1.27-.2-1.27-1.19q0-25.33,0-50.65c0-.86.21-1.2,1.13-1.18C279.19,10.66,281.8,10.63,284.65,10.63Z"/><path class="cls-1" d="M212.25,83.09H383.9c3.06,0,3.8.75,3.8,3.81q0,18.69,0,37.37c0,2.93-.83,3.77-3.75,3.77H44.7c-1.52,0-3,0-4.56,0-2.26,0-3.16-.91-3.16-3.15V86.26c0-2.32.87-3.17,3.24-3.17Zm.06,43.62H383.72c2.5,0,2.71-.21,2.71-2.77q0-18.56,0-37.12c0-2.09-.4-2.49-2.51-2.49H40.84c-2.31,0-2.63.31-2.63,2.62v37.12c0,2.45.2,2.64,2.69,2.64Z"/><path class="cls-1" d="M91.28,93.85c.52,0,.89-.08,1.25-.09,3.34,0,6.67-.07,10,0a15.79,15.79,0,0,1,4.09.7,5.63,5.63,0,0,1,4.17,5.18,6,6,0,0,1-2.73,5.87,25.06,25.06,0,0,1-2.8,1.46l7.18,10.49a.06.06,0,0,1,0,.08c-2.1,0-3.9.05-5.69,0-.36,0-.75-.63-1-1-1.87-2.86-3.72-5.74-5.57-8.61-.44-.67-3.09-1.2-3.65-.67a1.6,1.6,0,0,0-.26,1.05c0,2.61,0,5.23,0,7.85,0,.36,0,.71,0,1.14a.39.39,0,0,1-.37.35c-1.32,0-2.56,0-3.79,0-.26,0-.68.07-.68-1,0-3.46,0-6.92,0-10.38ZM96.2,105c2.36-.18,4.56-.19,6.69-.56s3.07-1.79,3.11-3.87c0-2.38-.7-3.8-2.66-4.14a70.23,70.23,0,0,0-7-.57c-.07.61-.12.9-.12,1.19C96.2,99.6,96.2,102.13,96.2,105Z"/><path class="cls-1" d="M143.21,104.34c-.06,8.41-5.56,13.79-13,14-4.81.12-9.06-1.24-12-5.22a12.54,12.54,0,0,1,7-19.52A15,15,0,0,1,137.28,95C141.25,97.43,143.17,101.05,143.21,104.34Zm-22.14-.19a9.63,9.63,0,0,0-.07,2.57c.12,1.09.22,2,.4,2.9a7.36,7.36,0,0,0,6.66,6.3c4.25.5,7.4-1,8.92-4.46a15.28,15.28,0,0,0,.42-10.66c-1-3.49-3.73-5.41-7.49-5.5-4-.09-6.83,1.61-8,5.1A25.26,25.26,0,0,0,121.07,104.15Z"/><path class="cls-1" d="M269.56,118.47c-6.39-.17-11.57-3.72-13.14-9.13a12.72,12.72,0,0,1,10.42-16.13,15,15,0,0,1,10.71,1.93,11.68,11.68,0,0,1,5.65,12c-.67,5.53-3.93,9-9.17,10.59A33.38,33.38,0,0,1,269.56,118.47ZM261,105.59c.09,1,.14,2.1.27,3.14.53,4.18,3.14,6.83,7.07,7.21,4.56.44,7.81-1.43,9.07-5.34a16,16,0,0,0,.16-9.47,7.42,7.42,0,0,0-7.34-5.83c-4-.2-6.88,1.42-8.21,5A26.59,26.59,0,0,0,261,105.59Z"/><path class="cls-1" d="M308.47,111v-1.33c0-4.86,0-9.71,0-14.56,0-.82.06-1.34,1.13-1.34s1.17.41,1.16,1.29q0,10.63,0,21.27c0,1.07-.36,1.27-1.36,1.37a4.11,4.11,0,0,1-3.93-1.87c-4.25-5.29-8.62-10.49-13-15.73-.24-.28-.5-.54-1-1.1v1.8c0,5.19,0,10.38,0,15.57,0,.75,0,1.29-1,1.31s-1.3-.27-1.3-1.29c.05-6.33,0-12.66,0-19,0-1.13-.35-2.74.23-3.26s2.29-.43,3.37-.41a2.42,2.42,0,0,1,1.88,1.1q6.3,7.68,12.62,15.34c.27.32.55.62.82.93C308.31,111.13,308.4,111.08,308.47,111Z"/><path class="cls-1" d="M71.4,107.09c0,.59-.06,1-.06,1.5,0,2.65,0,5.31,0,8,0,.74-.21,1.09-1,1.06-1-.05-2,0-3-.05-.31,0-.83-.48-.83-.74,0-7.59,0-15.18,0-22.78,0,0,0-.06.14-.23.36,0,.81,0,1.26-.06,3.12,0,6.24-.07,9.36,0a17.77,17.77,0,0,1,4.35.68,5.57,5.57,0,0,1,4.3,5.45c.13,3-1.11,5.22-3.8,6.22a18.13,18.13,0,0,1-4.92.91C75.31,107.21,73.41,107.09,71.4,107.09Zm0-2.23c1.51,0,2.94,0,4.37,0a10.82,10.82,0,0,0,2.12-.29,3.75,3.75,0,0,0,3.23-3.8c.1-2.35-.81-4-2.8-4.36-2.25-.37-4.56-.34-6.92-.49Z"/><path class="cls-1" d="M316.25,117.6c.17-.44.42-1,.61-1.46,3.31-7.1,6.64-14.19,9.93-21.31a1.85,1.85,0,0,1,1.71-1.12c2.6-.39,3.92.59,5,3,2.81,6.54,6,12.93,9,19.38.19.4.32.83.57,1.46-1.81,0-3.4,0-5,0-.32,0-.73-.52-.91-.89-1-2.09-2-4.19-2.89-6.32a1.67,1.67,0,0,0-1.83-1.14c-2.86.06-5.73,0-8.6,0a1.4,1.4,0,0,0-1.53,1c-.83,1.94-1.77,3.82-2.64,5.74S319,117.6,316.25,117.6Zm16.49-10.51-4.53-9.77-4.48,9.77Z"/><path class="cls-1" d="M177.92,115.25h1.43c3.5,0,7,0,10.51,0,.93,0,1.12.37,1.13,1.2s-.27,1.19-1.16,1.18q-8,0-16,0c-.75,0-1-.25-1-1q0-10.87,0-21.77c0-.84.31-1.08,1.11-1.07q7.8,0,15.58,0c.91,0,1.13.33,1.14,1.18s-.39,1.12-1.22,1.11c-3.42,0-6.84,0-10.25,0-1,0-1.43.23-1.39,1.33.09,2.09,0,4.2,0,6.48h3.64c2.16,0,4.31,0,6.46,0s2.1,0,1.77,2.27H177.92Z"/><path class="cls-1" d="M217.85,113.93l1.41-1.5c1.87,2,4,3.48,6.64,3.54a17.29,17.29,0,0,0,4.94-.74,4.56,4.56,0,0,0,2.13-1.68,2.81,2.81,0,0,0-1.05-4.55,39.4,39.4,0,0,0-4.19-1.36,39.15,39.15,0,0,1-5.88-2.23c-3.93-2.16-4.35-6.84-1-9.86,4.23-3.87,12.6-3.3,16.31,1.11-.9,1.58-1,1.59-2.39.57a9.36,9.36,0,0,0-9.09-1.45,5,5,0,0,0-1.85,1.27,2.76,2.76,0,0,0,1,4.71c2.17.78,4.45,1.26,6.67,1.9a21.78,21.78,0,0,1,2.5.88c5,2.14,4.61,8.09,1.77,10.77s-6.39,3.22-10.12,2.91A11,11,0,0,1,217.85,113.93Z"/><path class="cls-1" d="M214.33,96.77l-1.23,1.41a10.8,10.8,0,0,0-6.62-3,7.63,7.63,0,0,0-4.63,1,3.42,3.42,0,0,0-1.77,3.27,2.82,2.82,0,0,0,2.36,2.49c2,.61,4.07,1.1,6.11,1.65a17.91,17.91,0,0,1,1.92.62c2.41.93,4.12,2.49,4.42,5.2a6.92,6.92,0,0,1-3.08,6.78c-4,2.81-12.11,3.41-16.5-1.93a4.42,4.42,0,0,1-.28-.52l1.41-1.22c.51.45,1,.91,1.52,1.33a9.53,9.53,0,0,0,9.54,1.57,5.94,5.94,0,0,0,2.45-1.7,2.89,2.89,0,0,0-1-4.82,41.92,41.92,0,0,0-4.2-1.34,36.25,36.25,0,0,1-5.76-2.2c-4-2.22-4.34-6.91-.95-10C202.3,91.66,210.56,92.29,214.33,96.77Z"/><path class="cls-1" d="M154.86,96v8.54h11.32c0,.51,0,.68,0,1.24,0,.88-.23,1.18-1.13,1.16-2.91,0-5.82,0-8.74,0h-1.49v1.65c0,2.49-.06,5,0,7.47,0,1.19-.28,1.59-1.52,1.56-3.79,0-3.49.69-3.49-3.53,0-6.29,0-12.58,0-18.87,0-1.15.31-1.51,1.49-1.49,4.81.06,9.62,0,14.43,0,.85,0,1.33.08,1.33,1.13s-.41,1.18-1.29,1.17C162.18,96,158.6,96,154.86,96Z"/><path class="cls-1" d="M365.14,115.26c0,2.24-.12,2.35-2.14,2.35-4.61,0-9.21,0-13.81,0-1,0-1.4-.23-1.4-1.32,0-7.1,0-14.19,0-21.28,0-1,.27-1.46,1.28-1.49.84,0,1.55,0,2.28,0,1.1,0,1.45.45,1.44,1.6-.05,6.12,0,12.24,0,18.36,0,1.76,0,1.76,1.79,1.76h10.57Z"/><path class="cls-1" d="M244.49,117.42V93.85h4.85c0,.46,0,.82,0,1.18,0,6.64,0,20.68,0,22.42a.16.16,0,0,1-.17.17h-4.5A.19.19,0,0,1,244.49,117.42Z"/></g></svg>