<svg width="413" height="45" viewBox="0 0 413 45" fill="none" xmlns="http://www.w3.org/2000/svg">
<path d="M1.75487 34H11.1309L11.0989 33.808L9.88287 33.712C8.21887 33.584 8.05887 33.488 8.09087 33.264L12.1229 14.288H13.6589C16.5069 14.416 17.9789 16.016 18.4909 19.376L18.5549 19.76H18.6829L19.3869 14H2.04287L0.218872 19.76H0.378872L0.634872 19.344C2.10687 16.912 4.41087 14.48 7.41887 14.288H9.11487L5.14687 33.168C5.11487 33.36 4.63487 33.584 3.48287 33.68L1.85087 33.808L1.75487 34Z" fill="#1A1A1A"/>
<path d="M17.3461 34H26.7221L26.6901 33.808L25.4741 33.712C24.7381 33.648 23.6501 33.488 23.6821 33.264L25.8581 22.992C26.4341 23.312 27.0421 23.6 27.6181 23.824L31.8421 34H37.6341L37.5701 33.808L37.1861 33.776C35.4901 33.648 34.7221 32.976 33.7941 30.896L30.6901 24.048C34.3701 23.92 37.3781 21.808 37.3781 18.736C37.3781 15.984 34.8501 14 30.5301 14H21.6021L21.6341 14.192L22.8501 14.288C24.5141 14.416 24.6741 14.512 24.6421 14.736L20.7381 33.168C20.7061 33.36 19.7461 33.616 19.0741 33.68L17.4421 33.808L17.3461 34ZM29.1221 23.472C28.2261 23.472 27.1061 23.216 25.9221 22.704L27.7141 14.32H30.1461C32.8341 14.32 34.2741 15.824 34.2741 18C34.2741 21.424 32.0981 23.472 29.1221 23.472Z" fill="#1A1A1A"/>
<path d="M48.4474 34.48C52.9274 34.48 54.7514 31.824 55.7434 27.152L58.2394 15.536C58.3674 14.864 59.3594 14.416 60.7994 14.256L61.4074 14.192L61.5354 14H54.9114L54.9434 14.192L55.5194 14.256C57.4074 14.48 57.9194 14.928 57.7914 15.472L55.3274 27.024C54.3674 31.568 52.4794 33.552 49.2794 33.552C45.6634 33.552 43.4874 32.08 43.4874 28.816C43.4874 28.048 43.5834 27.184 43.8074 26.192L46.2074 14.832C46.2394 14.64 46.7194 14.416 47.8714 14.32L49.4714 14.192L49.5994 14H40.2234L40.2554 14.192L41.4714 14.288C43.1354 14.416 43.2954 14.512 43.2634 14.736L40.7994 26.416C40.5754 27.44 40.4154 28.496 40.4154 29.328C40.4154 32.944 43.9674 34.48 48.4474 34.48Z" fill="#1A1A1A"/>
<path d="M65.8811 34.384C70.5211 34.384 73.2411 30.928 73.2411 28.048C73.2411 25.36 71.4491 23.696 68.4091 22.064C65.5931 20.592 64.6651 19.6 64.6651 17.712C64.6651 15.44 66.5531 13.872 68.7611 13.872C70.3931 13.872 71.6091 14.672 72.4411 15.536L73.6891 19.568L73.7851 19.6L74.8091 14.48L73.6251 14.768C72.1851 14.16 70.4571 13.552 68.4411 13.552C64.4731 13.552 62.2331 16.432 62.2331 18.992C62.2331 21.584 64.1211 23.28 66.7451 24.656C69.1131 25.872 70.5851 27.248 70.5851 29.136C70.5851 31.856 68.3771 34.064 65.6571 34.064C63.1611 34.064 61.1131 32.72 60.4411 29.84L59.9931 27.92H59.8651L58.9691 32.592C60.0251 33.296 62.6171 34.384 65.8811 34.384Z" fill="#1A1A1A"/>
<path d="M78.0049 34H87.3809L87.3489 33.808L86.1329 33.712C84.4689 33.584 84.3089 33.488 84.3409 33.264L88.3729 14.288H89.9089C92.7569 14.416 94.2289 16.016 94.7409 19.376L94.8049 19.76H94.9329L95.6369 14H78.2929L76.4689 19.76H76.6289L76.8849 19.344C78.3569 16.912 80.6609 14.48 83.6689 14.288H85.3649L81.3969 33.168C81.3649 33.36 80.8849 33.584 79.7329 33.68L78.1009 33.808L78.0049 34Z" fill="#1A1A1A"/>
<path d="M94.0441 34H110.108L112.476 27.504L112.316 27.472L111.996 27.92C110.14 30.864 108.348 33.648 103.836 33.712L99.8681 33.552L101.916 23.824L103.228 23.888C106.844 24.08 108.092 24.208 107.772 26.672L107.708 27.12L107.932 27.152L109.372 20.368L109.148 20.336L108.924 20.784C107.932 22.928 106.908 23.344 103.484 23.504L102.012 23.536L103.932 14.288H106.14C110.684 14.288 111.228 16.496 112.38 19.824L112.508 20.24L112.7 20.208L112.316 14H98.3001L98.3321 14.192L99.1001 14.288C100.732 14.48 100.924 14.512 100.892 14.736L96.9881 33.168C96.9561 33.36 96.3481 33.552 95.1961 33.68L94.1401 33.808L94.0441 34Z" fill="#1A1A1A"/>
<path d="M112.982 34H121.846C129.942 34 134.87 28.432 134.87 22.128C134.87 17.616 131.83 13.872 124.758 13.936L117.238 14L117.27 14.192L118.038 14.288C119.67 14.48 119.862 14.512 119.83 14.736L115.926 33.168C115.894 33.36 115.414 33.552 114.262 33.68L113.078 33.808L112.982 34ZM121.014 33.744L118.934 32.944L122.902 14.288H124.566C129.654 14.288 131.574 17.84 131.574 21.904C131.574 28.24 128.054 33.744 121.014 33.744Z" fill="#1A1A1A"/>
<path d="M140.044 34H147.692C154.188 34 157.708 32.08 157.74 28.304C157.74 25.872 155.724 23.664 151.596 23.056V23.024C156.236 22.864 158.732 21.168 158.732 18.352C158.732 16.368 157.228 14 151.98 14H144.3L144.332 14.192L145.1 14.288C146.732 14.48 146.924 14.512 146.892 14.736L142.988 33.168C142.956 33.36 142.476 33.552 141.324 33.68L140.14 33.808L140.044 34ZM147.66 33.68L145.964 33.104L148.108 23.056H148.716C152.364 23.056 154.508 24.784 154.508 27.824C154.508 30.608 152.812 33.584 149.196 33.648L147.66 33.68ZM150.444 22.768C150.188 22.768 148.876 22.704 148.204 22.576L149.932 14.352H151.276C154.156 14.352 155.468 15.76 155.468 17.872C155.468 20.08 154.188 22.768 150.444 22.768Z" fill="#1A1A1A"/>
<path d="M161.868 34H171.244L171.212 33.808L169.996 33.712C168.332 33.584 168.172 33.488 168.204 33.264L169.996 24.72L174.316 18.896C176.972 15.344 178.092 14.448 179.404 14.288L180.236 14.192L180.364 14H173.58L173.612 14.192L174.316 14.288C177.132 14.672 176.716 14.896 173.772 18.992L169.9 24.208H169.836L167.34 16.848C166.7 14.96 166.764 14.32 168.78 14.224L169.484 14.192L169.612 14H160.716L160.748 14.192L161.644 14.256C162.956 14.352 163.404 14.8 164.044 16.656L166.988 25.04L165.26 33.168C165.228 33.36 164.748 33.584 163.596 33.68L161.964 33.808L161.868 34Z" fill="#1A1A1A"/>
<g clip-path="url(#clip0_24_766)">
<path d="M252.213 11.9526V3.76535H255.423V22.2946H252.252V13.3598H242.244C242.244 13.5599 242.22 13.7459 242.22 13.9318C242.22 16.5568 242.22 19.1783 242.22 21.8033C242.22 22.2033 242.114 22.3507 241.695 22.3332C240.965 22.3016 240.236 22.2981 239.507 22.3332C239.07 22.3542 238.96 22.1998 238.96 21.7787C238.96 16.6808 238.96 11.5829 238.96 6.48507C238.96 5.70249 238.96 4.91641 238.96 4.13032C238.96 3.81799 239.056 3.71622 239.369 3.72324C240.144 3.74078 240.92 3.7478 241.691 3.72324C242.093 3.72324 242.227 3.8215 242.223 4.23911C242.202 6.62544 242.223 9.01178 242.202 11.3981C242.202 11.8543 242.326 11.9666 242.777 11.9631C245.75 11.9631 248.728 11.9631 251.702 11.9631L252.213 11.9526Z" fill="#1A1A1A"/>
<path d="M312.055 13.023C312.055 10.1032 312.055 7.18349 312.055 4.26725C312.055 3.8356 312.167 3.71277 312.601 3.71979C314.937 3.74436 317.273 3.67066 319.606 3.76892C322.111 3.8742 324.398 4.64976 326.181 6.52374C327.472 7.89774 328.293 9.64327 328.528 11.5105C328.76 12.8599 328.696 14.2435 328.34 15.566C327.985 16.8885 327.345 18.1185 326.466 19.1713C325.766 20.0245 324.898 20.7266 323.916 21.2346C322.934 21.7427 321.858 22.046 320.754 22.1262C318.778 22.3157 316.78 22.2736 314.789 22.3227C314.045 22.3227 313.298 22.3016 312.555 22.3227C312.153 22.3227 312.055 22.1964 312.058 21.8138C312.072 18.8906 312.055 15.9568 312.055 13.023ZM315.324 5.05684C315.324 5.29197 315.3 5.47796 315.3 5.66746C315.3 10.529 315.3 15.3906 315.3 20.2522C315.3 20.3855 315.3 20.5189 315.3 20.6523C315.3 20.8804 315.395 20.9646 315.62 20.9611C316.988 20.926 318.365 20.9962 319.722 20.8523C322.136 20.5891 323.905 19.3503 324.743 17.0236C325.639 14.5337 325.679 11.8179 324.856 9.30312C324.575 8.29422 324.016 7.38401 323.242 6.6761C322.468 5.9682 321.509 5.49105 320.476 5.29899C318.799 4.91296 317.083 5.1165 315.335 5.05684H315.324Z" fill="#1A1A1A"/>
<path d="M341.202 22.5928C338.517 22.5578 336.248 21.9892 334.303 20.4873C333.195 19.6641 332.292 18.5969 331.667 17.369C331.042 16.1411 330.71 14.7857 330.698 13.409C330.589 9.96631 331.882 7.19395 334.74 5.22522C336.91 3.73376 339.377 3.30212 341.97 3.47056C343.929 3.57203 345.817 4.22825 347.414 5.36209C348.466 6.09978 349.346 7.05473 349.993 8.16179C350.641 9.26886 351.041 10.502 351.167 11.7771C351.519 14.6863 350.779 17.2797 348.774 19.452C347.115 21.2523 344.99 22.1717 342.58 22.477C342.044 22.5472 341.491 22.5718 341.202 22.5928ZM333.859 13.0229C333.968 13.9318 334.028 14.8513 334.193 15.7497C334.486 17.3078 335.099 18.7256 336.308 19.8135C337.816 21.1646 339.648 21.505 341.593 21.3821C344.447 21.1961 346.452 19.7959 347.368 17.0622C348.324 14.3187 348.277 11.3273 347.234 8.61523C346.936 7.74964 346.433 6.96802 345.769 6.336C345.104 5.70398 344.297 5.24002 343.415 4.98308C342.273 4.64333 341.072 4.54766 339.891 4.70233C337.826 4.9515 336.198 5.87094 335.152 7.69929C334.19 9.34516 333.926 11.149 333.859 13.0229Z" fill="#1A1A1A"/>
<path d="M242.724 1.59662L242.287 2.47746C241.149 2.1932 240.102 1.8528 239.027 1.68084C236.156 1.22814 233.774 2.22128 231.79 4.28125C230.211 5.91659 229.454 7.96954 228.767 10.0611C228.079 12.1527 227.459 14.3284 226.515 16.3779C224.855 19.9574 222.202 22.3648 218.361 23.3684C215.098 24.2142 212.086 23.5123 209.295 21.712C208.689 21.3225 208.139 20.8452 207.512 20.3715L208.354 19.4836C209.119 20.01 209.827 20.5364 210.585 21.0032C211.841 21.7823 213.27 22.2448 214.746 22.3507C217.417 22.5367 219.415 21.34 220.955 19.2625C222.142 17.6588 222.805 15.7918 223.58 13.9986C224.447 11.9842 225.204 9.92423 226.159 7.95551C227.416 5.2497 229.539 3.03556 232.195 1.65979C235.5 -0.0422335 238.869 -0.0492522 242.287 1.36851C242.407 1.42466 242.533 1.49836 242.724 1.59662Z" fill="#1A1A1A"/>
<path d="M288.231 3.7373H288.753C292.59 3.7373 296.427 3.7373 300.265 3.7373C300.712 3.7373 300.814 3.88119 300.8 4.29529C300.761 5.22175 300.881 5.07786 300.018 5.08137C297.372 5.08137 294.732 5.08137 292.076 5.08137H291.505V11.8158H299.916C299.934 12.2053 299.927 12.5957 299.895 12.9844C299.895 13.0756 299.62 13.1984 299.472 13.1984C297.164 13.1984 294.859 13.1984 292.551 13.1984H291.494C291.494 13.3809 291.473 13.5213 291.473 13.6652C291.473 15.9322 291.473 18.1992 291.473 20.4662C291.473 20.8663 291.593 20.9575 291.977 20.9575C294.761 20.9575 297.541 20.9575 300.324 20.9575H300.871C300.871 21.3681 300.871 21.7366 300.871 22.1016C300.871 22.1788 300.705 22.2841 300.603 22.3086C300.44 22.3262 300.276 22.3262 300.113 22.3086C296.336 22.3086 292.555 22.3086 288.778 22.3086C288.383 22.3086 288.245 22.2244 288.245 21.7963C288.26 15.9287 288.26 10.0611 288.245 4.19352C288.224 4.0742 288.231 3.89873 288.231 3.7373Z" fill="#1A1A1A"/>
<path d="M286.765 3.98297C286.744 4.07421 286.741 4.09175 286.737 4.10228C286.445 4.85328 286.445 4.85328 285.68 4.62868C283.309 3.92682 281.237 4.84626 280.116 7.24312C279.412 8.75213 278.88 10.3489 278.319 11.921C277.491 14.2547 276.646 16.5779 275.381 18.7186C274.387 20.3996 273.069 21.7471 271.152 22.3613C270.127 22.7087 269.035 22.8184 267.96 22.6822C266.886 22.546 265.856 22.1674 264.951 21.5752C264.331 21.1892 264.334 21.1786 264.753 20.5785C264.803 20.5084 264.863 20.4452 264.923 20.375C265.5 20.6698 266.047 20.9997 266.632 21.2348C268.041 21.8103 269.496 21.8489 270.712 20.8277C271.353 20.2759 271.864 19.5891 272.206 18.8169C273.083 16.8306 273.848 14.7917 274.627 12.7633C275.403 10.5673 276.481 8.48888 277.83 6.58688C279.317 4.59008 281.283 3.40393 283.82 3.33374C284.84 3.31005 285.851 3.53281 286.765 3.98297Z" fill="#1A1A1A"/>
<path d="M263.076 13.0195C263.076 15.9358 263.076 18.8555 263.076 21.7718C263.076 22.235 262.935 22.3543 262.495 22.3333C261.737 22.2982 260.976 22.3122 260.218 22.3333C259.905 22.3333 259.81 22.2174 259.81 21.9156C259.81 15.9919 259.81 10.0682 259.81 4.14445C259.81 3.84616 259.887 3.71982 260.211 3.72684C261.015 3.74439 261.818 3.75491 262.618 3.72684C263.027 3.72684 263.073 3.89178 263.069 4.22867C263.074 7.15778 263.076 10.0881 263.076 13.0195Z" fill="#1A1A1A"/>
<path d="M307.703 3.73036V4.26729C307.703 10.1033 307.703 15.9393 307.703 21.7753C307.703 22.2455 307.562 22.3508 307.125 22.3333C306.381 22.2982 305.638 22.3122 304.895 22.3333C304.577 22.3333 304.447 22.2631 304.447 21.9157C304.447 15.9896 304.447 10.0647 304.447 4.14095C304.447 3.83915 304.521 3.71984 304.845 3.72685C305.779 3.74089 306.699 3.73036 307.703 3.73036Z" fill="#1A1A1A"/>
<path d="M282.192 29.1587H342.675C343.753 29.1587 344.014 29.4219 344.014 30.4957C344.014 34.8684 344.014 39.2398 344.014 43.6101C344.014 44.6383 343.721 44.9331 342.692 44.9331H223.153C222.618 44.9331 222.096 44.9331 221.547 44.9331C220.75 44.9331 220.433 44.6137 220.433 43.8276V30.2711C220.433 29.457 220.74 29.1587 221.575 29.1587H282.192ZM282.213 44.4663H342.611C343.492 44.4663 343.566 44.3926 343.566 43.4943C343.566 39.1521 343.566 34.8099 343.566 30.4677C343.566 29.7342 343.425 29.5938 342.682 29.5938H221.793C220.979 29.5938 220.867 29.7026 220.867 30.5133V43.5399C220.867 44.3997 220.937 44.4663 221.814 44.4663H282.213Z" fill="#1A1A1A"/>
<path d="M239.567 32.9348C239.75 32.9348 239.88 32.9068 240.007 32.9033C241.184 32.9033 242.357 32.8787 243.531 32.9033C244.02 32.9216 244.504 33.0042 244.972 33.1489C245.379 33.2573 245.741 33.4918 246.005 33.8187C246.269 34.1455 246.422 34.5476 246.441 34.9667C246.495 35.3658 246.434 35.7719 246.263 36.137C246.093 36.5021 245.821 36.8109 245.479 37.0267C245.161 37.218 244.832 37.3891 244.493 37.5391L247.023 41.2203C247.026 41.2242 247.028 41.2292 247.028 41.2344C247.028 41.2396 247.026 41.2446 247.023 41.2484C246.283 41.2484 245.648 41.266 245.018 41.2484C244.891 41.2484 244.753 41.0273 244.665 40.8975C244.006 39.8938 243.354 38.8831 242.703 37.876C242.548 37.6408 241.614 37.4548 241.416 37.6408C241.344 37.7493 241.311 37.8796 241.325 38.0093C241.325 38.9252 241.325 39.8447 241.325 40.7641C241.325 40.8905 241.325 41.0133 241.325 41.1642C241.321 41.1968 241.306 41.2272 241.283 41.2497C241.259 41.2723 241.227 41.2855 241.194 41.287C240.729 41.287 240.292 41.287 239.859 41.287C239.767 41.287 239.619 41.3116 239.619 40.9361C239.619 39.7219 239.619 38.5076 239.619 37.2934L239.567 32.9348ZM241.3 36.8477C242.132 36.7846 242.907 36.781 243.657 36.6512C244.408 36.5214 244.739 36.023 244.753 35.2931C244.753 34.4579 244.507 33.9596 243.816 33.8402C242.998 33.7326 242.174 33.6659 241.349 33.6402C241.325 33.8543 241.307 33.956 241.307 34.0578C241.3 34.9527 241.3 35.8406 241.3 36.8477Z" fill="#1A1A1A"/>
<path d="M257.865 36.6161C257.844 39.5675 255.906 41.4555 253.284 41.5292C251.589 41.5713 250.092 41.094 249.056 39.6973C248.632 39.1172 248.357 38.4426 248.254 37.7323C248.152 37.022 248.226 36.2976 248.469 35.6222C248.712 34.9468 249.117 34.3409 249.65 33.8572C250.182 33.3735 250.825 33.0267 251.522 32.8471C252.226 32.629 252.968 32.5601 253.701 32.6447C254.433 32.7293 255.14 32.9656 255.775 33.3384C257.174 34.1912 257.851 35.4616 257.865 36.6161ZM250.063 36.5495C250.015 36.8476 250.006 37.151 250.039 37.4514C250.081 37.8339 250.116 38.1532 250.18 38.4691C250.262 39.0476 250.539 39.5813 250.965 39.9828C251.391 40.3844 251.942 40.6301 252.526 40.6799C254.024 40.8554 255.134 40.329 255.669 39.1148C256.168 37.926 256.221 36.598 255.817 35.3738C255.465 34.1491 254.503 33.4753 253.178 33.4437C251.769 33.4121 250.772 34.0087 250.359 35.2335C250.227 35.664 250.128 36.1039 250.063 36.5495Z" fill="#1A1A1A"/>
<path d="M302.386 41.5748C300.134 41.5151 298.309 40.2693 297.756 38.3708C297.577 37.7571 297.533 37.1125 297.626 36.4805C297.72 35.8484 297.948 35.2437 298.296 34.7071C298.644 34.1705 299.104 33.7145 299.644 33.37C300.184 33.0255 300.792 32.8005 301.427 32.7102C302.726 32.4575 304.073 32.6992 305.201 33.3875C305.923 33.8056 306.499 34.4322 306.855 35.1844C307.211 35.9365 307.328 36.7785 307.192 37.5987C306.956 39.5394 305.807 40.7571 303.961 41.3151C303.442 41.4371 302.916 41.5238 302.386 41.5748ZM299.37 37.0548C299.401 37.4057 299.419 37.7917 299.465 38.1567C299.651 39.6236 300.571 40.5536 301.956 40.6869C303.563 40.8413 304.708 40.1851 305.152 38.8129C305.507 37.7362 305.527 36.5777 305.208 35.4896C305.079 34.9043 304.752 34.3811 304.28 34.0084C303.809 33.6357 303.223 33.4362 302.622 33.4437C301.212 33.3735 300.198 33.942 299.729 35.1983C299.546 35.8034 299.426 36.4254 299.37 37.0548Z" fill="#1A1A1A"/>
<path d="M316.096 38.9534V38.4867C316.096 36.7812 316.096 35.0791 316.096 33.3771C316.096 33.0894 316.117 32.9069 316.494 32.9069C316.871 32.9069 316.907 33.0507 316.903 33.3596C316.903 35.8465 316.903 38.3346 316.903 40.8239C316.903 41.1994 316.776 41.2696 316.424 41.3047C316.154 41.3353 315.882 41.2901 315.637 41.1741C315.392 41.0581 315.185 40.8759 315.039 40.6484C313.542 38.792 312.002 36.9671 310.458 35.1283C310.374 35.03 310.282 34.9388 310.106 34.7422V35.3739C310.106 37.1953 310.106 39.0166 310.106 40.8379C310.106 41.1011 310.106 41.2906 309.754 41.2976C309.401 41.3047 309.296 41.2029 309.296 40.8449C309.313 38.6235 309.296 36.4021 309.296 34.1772C309.296 33.7807 309.172 33.2157 309.377 33.0332C309.581 32.8507 310.183 32.8823 310.564 32.8893C310.697 32.8976 310.826 32.9369 310.941 33.0039C311.056 33.0709 311.154 33.1639 311.226 33.2753C312.706 35.0721 314.189 36.8666 315.673 38.6586C315.768 38.7709 315.867 38.8762 315.962 38.985C316.04 38.999 316.071 38.9815 316.096 38.9534Z" fill="#1A1A1A"/>
<path d="M232.562 37.5811C232.562 37.7882 232.54 37.9321 232.54 38.1075C232.54 39.0375 232.54 39.971 232.54 40.915C232.54 41.1747 232.466 41.2975 232.188 41.287C231.836 41.2694 231.483 41.287 231.131 41.2694C231.022 41.2694 230.839 41.101 230.839 41.0097C230.839 38.3462 230.839 35.6826 230.839 33.0155C230.839 33.0155 230.839 32.9945 230.888 32.9348C231.015 32.9348 231.173 32.9348 231.332 32.9137C232.431 32.9137 233.531 32.8892 234.63 32.9137C235.149 32.9297 235.664 33.0099 236.163 33.1524C236.595 33.2533 236.981 33.4974 237.256 33.8448C237.531 34.1923 237.68 34.6224 237.678 35.065C237.724 36.1178 237.287 36.8968 236.339 37.2478C235.779 37.4335 235.195 37.541 234.605 37.5671C233.939 37.6233 233.27 37.5811 232.562 37.5811ZM232.562 36.7986C233.094 36.7986 233.597 36.7986 234.101 36.7986C234.353 36.7893 234.603 36.7552 234.848 36.6968C235.169 36.6521 235.462 36.4916 235.672 36.2458C235.882 35.9999 235.994 35.6858 235.987 35.3633C236.022 34.5386 235.701 33.9595 235 33.8332C234.207 33.7033 233.393 33.7139 232.562 33.6612V36.7986Z" fill="#1A1A1A"/>
<path d="M318.838 41.2694C318.897 41.115 318.986 40.9184 319.052 40.757C320.219 38.2654 321.392 35.7773 322.551 33.2787C322.602 33.1614 322.686 33.0616 322.793 32.9917C322.9 32.9218 323.026 32.8849 323.154 32.8856C324.07 32.7487 324.535 33.0927 324.916 33.9384C325.906 36.2335 327.03 38.476 328.087 40.7395C328.154 40.8798 328.2 41.0307 328.288 41.2518C327.65 41.2518 327.09 41.2518 326.526 41.2518C326.413 41.2518 326.269 41.0693 326.205 40.9395C325.853 40.206 325.501 39.4691 325.187 38.7216C325.144 38.5898 325.056 38.4773 324.938 38.4041C324.82 38.3308 324.68 38.3016 324.542 38.3215C323.535 38.3426 322.523 38.3215 321.512 38.3215C321.395 38.306 321.276 38.3329 321.177 38.3973C321.078 38.4617 321.006 38.5594 320.973 38.6725C320.68 39.3533 320.349 40.013 320.043 40.6868C319.736 41.3606 319.807 41.2694 318.838 41.2694ZM324.648 37.5811L323.052 34.1525L321.473 37.5811H324.648Z" fill="#1A1A1A"/>
<path d="M270.095 40.4447H270.599C271.832 40.4447 273.066 40.4447 274.302 40.4447C274.63 40.4447 274.697 40.5745 274.701 40.8658C274.704 41.1571 274.605 41.2834 274.292 41.2799C272.413 41.2799 270.533 41.2799 268.654 41.2799C268.39 41.2799 268.302 41.1922 268.302 40.929C268.302 38.3859 268.302 35.8393 268.302 33.2892C268.302 32.9944 268.411 32.9102 268.693 32.9137C270.525 32.9137 272.355 32.9137 274.183 32.9137C274.503 32.9137 274.581 33.0295 274.584 33.3278C274.588 33.6261 274.447 33.7208 274.154 33.7173C272.949 33.7173 271.744 33.7173 270.543 33.7173C270.19 33.7173 270.039 33.798 270.053 34.1841C270.085 34.9175 270.053 35.658 270.053 36.4581H271.335C272.097 36.4581 272.854 36.4581 273.612 36.4581C274.369 36.4581 274.352 36.4581 274.235 37.2547H270.095V40.4447Z" fill="#1A1A1A"/>
<path d="M284.165 39.9814L284.662 39.455C285.321 40.1569 286.071 40.6763 287.002 40.6973C287.591 40.6951 288.178 40.6077 288.742 40.4376C289.047 40.3215 289.308 40.1159 289.493 39.8481C289.604 39.73 289.685 39.5864 289.727 39.43C289.769 39.2736 289.772 39.1092 289.736 38.9514C289.699 38.7935 289.624 38.6471 289.517 38.525C289.41 38.4029 289.275 38.3089 289.123 38.2513C288.64 38.065 288.147 37.9056 287.646 37.7741C286.936 37.569 286.243 37.3073 285.574 36.9915C284.19 36.2335 284.042 34.5911 285.222 33.5313C286.713 32.1732 289.662 32.3732 290.969 33.9208C290.652 34.4753 290.617 34.4788 290.127 34.1209C289.682 33.7684 289.154 33.5364 288.593 33.4472C288.031 33.3581 287.457 33.4148 286.924 33.612C286.676 33.7095 286.453 33.8619 286.272 34.0577C286.142 34.1712 286.045 34.3171 285.991 34.4804C285.936 34.6438 285.926 34.8186 285.962 34.9869C285.998 35.1553 286.078 35.3111 286.195 35.4383C286.311 35.5654 286.46 35.6595 286.625 35.7106C287.389 35.9843 288.193 36.1528 288.975 36.3774C289.274 36.4624 289.569 36.5655 289.856 36.6862C291.618 37.4372 291.48 39.5252 290.479 40.4657C289.479 41.4062 288.228 41.5957 286.913 41.4869C286.375 41.4406 285.853 41.2827 285.38 41.0234C284.906 40.7642 284.493 40.4093 284.165 39.9814Z" fill="#1A1A1A"/>
<path d="M282.925 33.9595L282.491 34.4543C281.859 33.8455 281.035 33.4735 280.159 33.4015C279.591 33.3431 279.02 33.466 278.527 33.7524C278.323 33.8634 278.156 34.0308 278.045 34.2344C277.934 34.438 277.885 34.6692 277.904 34.9C277.926 35.1164 278.02 35.3194 278.171 35.4773C278.321 35.6353 278.519 35.7395 278.735 35.7738C279.44 35.9879 280.169 36.1598 280.888 36.3528C281.118 36.4126 281.343 36.4853 281.565 36.5704C282.414 36.8968 283.016 37.4442 283.122 38.3953C283.188 38.8536 283.12 39.3212 282.928 39.7427C282.736 40.1643 282.427 40.5223 282.037 40.7746C280.627 41.7607 277.77 41.9713 276.223 40.0973C276.186 40.0387 276.153 39.9778 276.124 39.9148L276.621 39.4867C276.801 39.6446 276.973 39.806 277.157 39.9534C277.617 40.3355 278.171 40.5881 278.762 40.685C279.353 40.7818 279.959 40.7195 280.518 40.5044C280.852 40.3818 281.149 40.1765 281.381 39.9078C281.508 39.7889 281.602 39.6398 281.654 39.4746C281.706 39.3094 281.715 39.1336 281.68 38.964C281.644 38.7944 281.566 38.6366 281.452 38.5057C281.338 38.3749 281.193 38.2752 281.029 38.2163C280.544 38.0338 280.05 37.8768 279.549 37.746C278.852 37.5466 278.173 37.2883 277.52 36.974C276.11 36.1949 275.99 34.5491 277.185 33.4647C278.686 32.1662 281.596 32.3873 282.925 33.9595Z" fill="#1A1A1A"/>
<path d="M261.97 33.6895V36.6864H265.959C265.959 36.8654 265.959 36.9251 265.959 37.1216C265.959 37.4304 265.877 37.5357 265.56 37.5287C264.535 37.5287 263.51 37.5287 262.481 37.5287H261.956V38.1077C261.956 38.9815 261.935 39.8624 261.956 40.7292C261.956 41.1468 261.857 41.2871 261.42 41.2766C260.085 41.2766 260.19 41.5188 260.19 40.0378C260.19 37.8305 260.19 35.6231 260.19 33.4157C260.19 33.0122 260.3 32.8858 260.715 32.8929C262.41 32.9139 264.105 32.8929 265.8 32.8929C266.099 32.8929 266.269 32.9209 266.269 33.2894C266.269 33.6579 266.124 33.7035 265.814 33.7C264.549 33.6895 263.288 33.6895 261.97 33.6895Z" fill="#1A1A1A"/>
<path d="M336.065 40.4484C336.065 41.2344 336.022 41.273 335.31 41.273C333.686 41.273 332.065 41.273 330.444 41.273C330.092 41.273 329.951 41.1923 329.951 40.8098C329.951 38.3182 329.951 35.8301 329.951 33.342C329.951 32.9911 330.046 32.8296 330.402 32.8191C330.698 32.8191 330.948 32.8191 331.205 32.8191C331.593 32.8191 331.716 32.977 331.713 33.3806C331.695 35.5283 331.713 37.676 331.713 39.8237C331.713 40.4413 331.713 40.4413 332.344 40.4413H336.068L336.065 40.4484Z" fill="#1A1A1A"/>
<path d="M293.552 41.2063V32.9348H295.261C295.261 33.0962 295.261 33.2226 295.261 33.3489C295.261 35.6791 295.261 40.6062 295.261 41.2168C295.261 41.2248 295.26 41.2328 295.257 41.2402C295.255 41.2477 295.25 41.2545 295.245 41.2601C295.239 41.2658 295.232 41.2702 295.225 41.273C295.217 41.2758 295.209 41.277 295.201 41.2765H293.615C293.607 41.276 293.598 41.2738 293.59 41.2701C293.582 41.2663 293.575 41.261 293.569 41.2545C293.563 41.248 293.559 41.2403 293.556 41.2321C293.553 41.2238 293.552 41.215 293.552 41.2063Z" fill="#1A1A1A"/>
</g>
<circle cx="403.403" cy="22" r="8.35" stroke="#3A3A3A" stroke-width="1.3"/>
<defs>
<clipPath id="clip0_24_766">
<rect width="144" height="45" fill="white" transform="translate(207.403)"/>
</clipPath>
</defs>
</svg>
